<svg xmlns="http://www.w3.org/2000/svg" viewBox="0 0 512 512" role="img" aria-labelledby="title desc">
  <title id="title">ResidenciAPP</title>
  <desc id="desc">Logo de ResidenciAPP con símbolo médico y monograma R</desc>
  <defs>
    <linearGradient id="bg" x1="0" y1="0" x2="1" y2="1">
      <stop offset="0%" stop-color="#0F4C81"/>
      <stop offset="100%" stop-color="#1877D6"/>
    </linearGradient>
    <linearGradient id="glass" x1="0" y1="0" x2="1" y2="1">
      <stop offset="0%" stop-color="#ffffff" stop-opacity="0.96"/>
      <stop offset="100%" stop-color="#e9f4ff" stop-opacity="0.92"/>
    </linearGradient>
  </defs>
  <rect width="512" height="512" rx="120" fill="url(#bg)"/>
  <circle cx="398" cy="116" r="62" fill="#59B8FB" opacity="0.18"/>
  <circle cx="104" cy="418" r="72" fill="#8ED3FF" opacity="0.12"/>
  <path d="M124 156c0-23 19-42 42-42h164c23 0 42 19 42 42v172c0 23-19 42-42 42H166c-23 0-42-19-42-42V156Z" fill="url(#glass)"/>
  <path d="M156 184h184" stroke="#CFE6FF" stroke-width="14" stroke-linecap="round"/>
  <path d="M190 218v104" stroke="#1877D6" stroke-width="28" stroke-linecap="round"/>
  <path d="M190 218h62c36 0 56 17 56 47 0 30-21 47-56 47h-62" fill="none" stroke="#1877D6" stroke-width="28" stroke-linecap="round" stroke-linejoin="round"/>
  <path d="M250 267l80 86" stroke="#1877D6" stroke-width="28" stroke-linecap="round"/>
  <g transform="translate(318 302)">
    <rect x="0" y="0" width="116" height="116" rx="34" fill="#10B981"/>
    <path d="M58 24v68M24 58h68" stroke="#fff" stroke-width="18" stroke-linecap="round"/>
  </g>
</svg>